<svg width="335" height="44" viewBox="0 0 335 44" fill="none" xmlns="http://www.w3.org/2000/svg">
<path d="M77.933 21.2131C77.933 17.8687 76.1745 16.1259 73.4654 16.1259C70.7088 16.1259 68.7126 17.9629 68.7126 21.637V29.8803H66.7639V21.2131C66.7639 17.8687 64.9579 16.1259 62.2488 16.1259C59.4446 16.1259 57.496 17.9629 57.496 21.637V29.8803H55.5474V14.7127H57.496V17.3035C58.4941 15.3722 60.3952 14.4301 62.5815 14.4301C65.148 14.4301 67.3343 15.6077 68.2373 18.1513C69.0928 15.6548 71.3266 14.4301 73.7505 14.4301C77.125 14.4301 79.8341 16.5498 79.8341 20.9776V29.8803H77.8855V21.2131H77.933Z" fill="#19405E"/>
<path d="M89.2172 14.4772C92.3065 14.4772 94.3977 16.1258 95.2532 18.0571V14.7127H97.2019V29.8802H95.3008V26.5359C94.3977 28.4671 92.259 30.1158 89.2172 30.1158C85.0347 30.1158 81.9454 27.0069 81.9454 22.2965C81.9454 17.5861 85.0347 14.4772 89.2172 14.4772ZM89.5974 16.173C86.3655 16.173 83.8941 18.3868 83.8941 22.2494C83.8941 26.0648 86.3655 28.3729 89.5974 28.3729C92.7343 28.3729 95.3008 26.0177 95.3008 22.2494C95.3008 18.5282 92.7343 16.173 89.5974 16.173Z" fill="#19405E"/>
<path d="M100.359 9.3429H102.307V21.4958L108.486 14.7128H111.243L103.971 22.2965L111.29 29.8803H108.629L102.307 23.0502V29.8803H100.359V9.3429Z" fill="#19405E"/>
<path d="M111.976 10.4263C111.976 9.5784 112.641 9.01315 113.402 9.01315C114.21 9.01315 114.827 9.5784 114.827 10.4263C114.827 11.2741 114.162 11.8865 113.402 11.8865C112.594 11.8394 111.976 11.227 111.976 10.4263ZM112.403 14.7127H114.352V29.8803H112.403V14.7127Z" fill="#19405E"/>
<path d="M128.916 21.2131C128.916 17.8687 127.062 16.1259 124.258 16.1259C121.406 16.1259 119.41 17.9158 119.41 21.5899V29.8803H117.461V14.7127H119.41V17.3035C120.408 15.4193 122.357 14.4301 124.638 14.4301C128.108 14.4301 130.864 16.5498 130.864 20.9776V29.8803H128.916V21.2131Z" fill="#19405E"/>
<path d="M140.2 14.4772C143.242 14.4772 145.38 16.0787 146.236 18.01V14.7127H148.185V30.2571C148.185 34.4964 145.238 37.3227 141.055 37.3227C137.111 37.3227 134.354 35.3443 133.736 32.1412H135.685C136.35 34.2138 138.251 35.6269 141.055 35.6269C143.955 35.6269 146.236 33.6957 146.236 30.2571V26.4888C145.333 28.42 143.194 30.0687 140.2 30.0687C135.97 30.0687 132.881 26.9598 132.881 22.2494C132.881 17.539 136.017 14.4772 140.2 14.4772ZM140.58 16.173C137.348 16.173 134.877 18.3868 134.877 22.2494C134.877 26.0648 137.348 28.3729 140.58 28.3729C143.717 28.3729 146.283 26.0177 146.283 22.2494C146.283 18.5282 143.717 16.173 140.58 16.173Z" fill="#19405E"/>
<path d="M165.62 14.4772C169.85 14.4772 172.892 17.4919 172.892 22.2494C172.892 27.0069 169.755 30.0687 165.62 30.0687C162.578 30.0687 160.439 28.4672 159.536 26.4888V29.8803H157.588V9.3429H159.536V18.1043C160.487 16.0788 162.626 14.4772 165.62 14.4772ZM165.24 16.173C162.15 16.173 159.536 18.5282 159.536 22.2965C159.536 26.0649 162.103 28.4201 165.24 28.4201C168.472 28.4201 170.943 26.112 170.943 22.2965C170.943 18.3869 168.472 16.173 165.24 16.173Z" fill="#19405E"/>
<path d="M181.752 30.1158C177.427 30.1158 174.243 27.1011 174.243 22.2965C174.243 17.4448 177.379 14.4772 181.752 14.4772C186.22 14.4772 188.976 17.6332 188.976 21.4957C188.976 22.1081 188.976 22.4849 188.929 23.003H176.239C176.429 26.583 178.9 28.42 181.752 28.42C184.366 28.42 186.125 27.054 186.695 25.0285H188.786C188.073 27.949 185.602 30.1158 181.752 30.1158ZM176.239 21.4486H187.028C187.123 17.9158 184.509 16.1258 181.705 16.1258C178.9 16.173 176.476 17.9158 176.239 21.4486Z" fill="#19405E"/>
<path d="M191.753 16.3614H189.614V14.7127H191.753V10.8973H193.749V14.7127H197.979V16.3614H193.749V25.7822C193.749 27.6664 194.414 28.2316 196.173 28.2316H197.979V29.8803H195.888C193.226 29.8803 191.8 28.7969 191.8 25.7822V16.3614H191.753Z" fill="#19405E"/>
<path d="M201.163 16.3614H199.025V14.7127H201.163V10.8973H203.16V14.7127H207.39V16.3614H203.16V25.7822C203.16 27.6664 203.825 28.2316 205.584 28.2316H207.39V29.8803H205.298C202.637 29.8803 201.211 28.7969 201.211 25.7822V16.3614H201.163Z" fill="#19405E"/>
<path d="M215.822 30.1158C211.497 30.1158 208.313 27.1011 208.313 22.2965C208.313 17.4448 211.45 14.4772 215.822 14.4772C220.29 14.4772 223.046 17.6332 223.046 21.4957C223.046 22.1081 223.046 22.4849 222.999 23.003H210.309C210.499 26.583 212.97 28.42 215.822 28.42C218.436 28.42 220.195 27.054 220.765 25.0285H222.856C222.143 27.949 219.672 30.1158 215.822 30.1158ZM210.309 21.4486H221.098C221.193 17.9158 218.579 16.1258 215.775 16.1258C212.97 16.173 210.547 17.9158 210.309 21.4486Z" fill="#19405E"/>
<path d="M227.201 29.8803H225.253V14.7127H227.201V17.3977C228.057 15.5135 229.815 14.4301 232.429 14.4301V16.4556H231.907C229.34 16.4556 227.201 17.5861 227.201 21.4015V29.8803Z" fill="#19405E"/>
<path d="M262.44 21.4486C262.44 19.4231 261.251 18.2926 259.445 18.2926C257.639 18.2926 256.451 19.4231 256.451 21.4486V29.8802H251.698V21.4486C251.698 19.4231 250.51 18.2926 248.704 18.2926C246.898 18.2926 245.71 19.4231 245.71 21.4486V29.8802H240.91V14.383H245.71V16.3143C246.613 15.0425 248.229 14.1946 250.273 14.1946C252.649 14.1946 254.55 15.2309 255.596 17.0679C256.641 15.4193 258.59 14.1946 260.871 14.1946C264.721 14.1946 267.24 16.644 267.24 20.7892V29.8802H262.487V21.4486H262.44Z" fill="#19405E"/>
<path d="M276.29 30.1158C271.68 30.1158 268.211 27.054 268.211 22.1552C268.211 17.2563 271.775 14.1946 276.338 14.1946C280.948 14.1946 284.465 17.2563 284.465 22.1552C284.465 27.054 280.901 30.1158 276.29 30.1158ZM276.29 26.0177C278.001 26.0177 279.617 24.7459 279.617 22.1552C279.617 19.5173 278.049 18.2926 276.385 18.2926C274.627 18.2926 273.153 19.5173 273.153 22.1552C273.106 24.7459 274.532 26.0177 276.29 26.0177Z" fill="#19405E"/>
<path d="M296.415 21.4486C296.415 19.3289 295.227 18.1513 293.42 18.1513C291.614 18.1513 290.426 19.3289 290.426 21.4486V29.8803H285.626V14.383H290.426V16.4556C291.377 15.1367 293.04 14.2417 295.179 14.2417C298.791 14.2417 301.215 16.6911 301.215 20.8363V29.8803H296.462V21.4486H296.415Z" fill="#19405E"/>
<path d="M310.075 30.1158C305.465 30.1158 302.186 27.054 302.186 22.1552C302.186 17.2563 305.418 14.1946 310.075 14.1946C314.638 14.1946 317.87 17.2092 317.87 21.9197C317.87 22.3436 317.822 22.8146 317.775 23.3328H306.939C307.129 25.3583 308.364 26.3003 309.933 26.3003C311.264 26.3003 312.024 25.6409 312.452 24.793H317.537C316.777 27.7606 313.973 30.1158 310.075 30.1158ZM306.986 20.6478H312.975C312.975 18.9521 311.644 17.9629 310.028 17.9629C308.459 17.9629 307.271 18.905 306.986 20.6478Z" fill="#19405E"/>
<path d="M329.819 14.383H335L325.162 37.2756H319.981L323.593 29.3621L317.225 14.383H322.595L326.207 24.0864L329.819 14.383Z" fill="#19405E"/>
<path fill-rule="evenodd" clip-rule="evenodd" d="M33.317 25.9706C33.9824 26.159 34.6478 26.4416 35.2182 26.8185C35.5033 27.0069 35.7885 27.2424 36.0737 27.525L36.8341 28.2787L40.3512 31.7644L31.7961 40.2431L29.0395 37.5111L27.4711 39.0655L30.9882 42.5512L31.7486 43.3049L32.5091 42.5512L42.6325 32.5181L43.3929 31.7644L42.6325 31.0107L38.355 26.7714L42.6325 22.532L43.3929 21.7783L42.6325 21.0247L38.355 16.7853L36.7866 15.2309L36.1212 14.4772L29.0871 7.45868L28.3266 8.21235C28.0414 8.49497 27.8513 8.7776 27.6612 9.06022L30.3228 11.6981L26.9008 15.0895C26.2354 14.1004 25.8552 12.9228 25.8552 11.6981C25.8552 11.1799 25.9027 10.6618 26.0453 10.1907C26.2354 9.53126 26.5206 8.87181 26.9008 8.30656C27.0909 8.02393 27.3285 7.74131 27.6137 7.45868L28.3741 6.70502L29.895 5.19769L31.8437 3.26642L40.3987 11.7452L37.6421 14.4772L39.2105 16.0316L42.7276 12.5459L43.488 11.7923L31.8437 0.204651L26.7582 5.19769L21.7202 0.204651L20.9598 0.958317L16.6823 5.19769L15.1139 6.75212L7.31929 14.4772L8.07974 15.2309C8.36491 15.5135 8.65007 15.7019 8.93524 15.8903L11.5968 13.2525L15.0188 16.644C14.0207 17.3034 12.8325 17.6803 11.5968 17.6803C10.3611 17.6803 9.17288 17.3034 8.17479 16.644C7.88963 16.4556 7.60446 16.22 7.31929 15.9374L6.55885 15.1838L3.04178 11.6981L11.5968 3.21931L14.3534 5.95135L15.9218 4.44402L12.4048 0.958317L11.6443 0.204651L10.8839 0.958317L0.760446 10.9915L0 11.7452L0.760446 12.4988L5.03795 16.7382L0 21.7312L0.760446 22.4849L5.03795 26.7243L6.60637 28.2787L7.36682 29.0324L14.4009 36.0038L15.1614 35.2501C15.4466 34.9675 15.6367 34.6849 15.8268 34.4022L13.1652 31.7644L16.5872 28.3729C17.2526 29.3621 17.6328 30.5397 17.6328 31.7644C17.6328 32.9891 17.2526 34.1667 16.5872 35.1559C16.3971 35.4385 16.1595 35.7211 15.8743 36.0038L15.1139 36.7574L11.5968 40.2431L3.04178 31.7644L5.7984 29.0324L4.27751 27.4779L0 31.7173L11.6443 43.2578L12.4048 42.5041L16.6823 38.2648L21.7202 43.2578L26.7107 38.359L26.7582 38.3119L29.0395 36.0509L36.1212 29.0324L35.3607 28.2787C35.0756 27.9961 34.7904 27.8077 34.5052 27.6192L31.8437 30.21L28.4217 26.8185C29.4198 26.159 30.6079 25.7822 31.8437 25.7822C32.319 25.7822 32.8418 25.8293 33.317 25.9706ZM36.8341 25.264C35.4083 24.1806 33.6497 23.6154 31.8437 23.6154C30.0376 23.6154 28.2791 24.1806 26.8532 25.264L23.2887 21.7312L26.8532 18.1984C28.2791 19.2818 30.0376 19.8471 31.8437 19.8471C33.6497 19.8471 35.4083 19.2818 36.8341 18.1984L40.3987 21.7312L36.8341 25.264ZM23.6214 11.7452C23.6214 13.5351 24.1917 15.278 25.2848 16.6911L21.7202 20.2239L18.1556 16.6911C19.2488 15.278 19.8191 13.5351 19.8191 11.7452C19.8191 9.9552 19.2488 8.21235 18.1556 6.79923L21.7202 3.26642L25.2848 6.79923C24.1917 8.21235 23.6214 9.9552 23.6214 11.7452ZM17.6804 11.7452C17.6804 12.9699 17.3001 14.1475 16.6348 15.1367L13.2127 11.7452L16.6348 8.35366C17.3001 9.34285 17.6804 10.5205 17.6804 11.7452ZM31.8437 17.7274C30.6079 17.7274 29.4198 17.3505 28.4217 16.6911L31.8437 13.2996L35.2657 16.6911C34.2676 17.3505 33.0794 17.7274 31.8437 17.7274ZM16.6348 18.1984L20.1993 21.7312L16.6348 25.264C15.2089 24.1806 13.4504 23.6154 11.6443 23.6154C9.83827 23.6154 8.07974 24.1806 6.6539 25.264L3.08931 21.7312L6.6539 18.1984C8.07974 19.2818 9.83827 19.8471 11.6443 19.8471C13.4504 19.8942 15.2089 19.2818 16.6348 18.1984ZM21.7202 23.2857L25.2848 26.8185C24.1917 28.2316 23.6214 29.9744 23.6214 31.7644C23.6214 33.5544 24.1917 35.2972 25.2848 36.7103L21.7202 40.2431L18.1556 36.7103C19.2488 35.2972 19.8191 33.5544 19.8191 31.7644C19.8191 29.9744 19.2488 28.2316 18.1556 26.8185L21.7202 23.2857ZM11.6443 25.7822C12.8801 25.7822 14.0682 26.159 15.0663 26.8185L11.6443 30.21L8.22232 26.8185C9.22041 26.1119 10.4086 25.7822 11.6443 25.7822ZM26.8532 28.3258L30.2753 31.7173L26.8532 35.1088C26.1879 34.1196 25.8076 32.942 25.8076 31.7173C25.8076 30.4926 26.1403 29.315 26.8532 28.3258Z" fill="#196B93"/>
</svg>
