<svg width="237" height="31" viewBox="0 0 237 31" fill="none" xmlns="http://www.w3.org/2000/svg">
<path d="M55.2303 15.1595C55.2303 12.8005 53.9899 11.5712 52.0791 11.5712C50.1347 11.5712 48.7267 12.867 48.7267 15.4585V21.2728H47.3523V15.1595C47.3523 12.8005 46.0784 11.5712 44.1675 11.5712C42.1897 11.5712 40.8152 12.867 40.8152 15.4585V21.2728H39.4407V10.5745H40.8152V12.4018C41.5192 11.0396 42.8601 10.3752 44.4022 10.3752C46.2125 10.3752 47.7545 11.2058 48.3915 12.9999C48.9949 11.239 50.5705 10.3752 52.2802 10.3752C54.6604 10.3752 56.5712 11.8703 56.5712 14.9934V21.2728H55.1968V15.1595H55.2303Z" fill="white"/>
<path d="M63.1895 10.4083C65.3685 10.4083 66.8436 11.5712 67.447 12.9334V10.5744H68.8215V21.2727H67.4805V18.9138C66.8436 20.276 65.335 21.4389 63.1895 21.4389C60.2395 21.4389 58.0604 19.2461 58.0604 15.9236C58.0604 12.6011 60.2395 10.4083 63.1895 10.4083ZM63.4577 11.6044C61.1781 11.6044 59.4349 13.166 59.4349 15.8904C59.4349 18.5816 61.1781 20.2096 63.4577 20.2096C65.6703 20.2096 67.4805 18.5483 67.4805 15.8904C67.4805 13.2656 65.6703 11.6044 63.4577 11.6044Z" fill="white"/>
<path d="M71.0482 6.78687H72.4226V15.3588L76.7807 10.5745H78.725L73.5959 15.9236L78.7585 21.2728H76.8812L72.4226 16.4552V21.2728H71.0482V6.78687Z" fill="white"/>
<path d="M79.2421 7.55103C79.2421 6.95299 79.7114 6.55429 80.2478 6.55429C80.8177 6.55429 81.2535 6.95299 81.2535 7.55103C81.2535 8.14907 80.7841 8.58099 80.2478 8.58099C79.6779 8.54776 79.2421 8.11584 79.2421 7.55103ZM79.5438 10.5745H80.9182V21.2728H79.5438V10.5745Z" fill="white"/>
<path d="M91.1905 15.1595C91.1905 12.8005 89.8831 11.5712 87.9052 11.5712C85.8938 11.5712 84.4859 12.8338 84.4859 15.4253V21.2728H83.1114V10.5745H84.4859V12.4018C85.1898 11.0729 86.5643 10.3752 88.1734 10.3752C90.6206 10.3752 92.565 11.8703 92.565 14.9934V21.2728H91.1905V15.1595Z" fill="white"/>
<path d="M99.1498 10.4083C101.295 10.4083 102.804 11.538 103.407 12.9002V10.5744H104.782V21.5385C104.782 24.5288 102.703 26.5222 99.7532 26.5222C96.9708 26.5222 95.0264 25.1268 94.5906 22.8675H95.9651C96.4344 24.3294 97.7753 25.3261 99.7532 25.3261C101.798 25.3261 103.407 23.9639 103.407 21.5385V18.8806C102.77 20.2428 101.262 21.4056 99.1498 21.4056C96.1662 21.4056 93.9872 19.2128 93.9872 15.8904C93.9872 12.5679 96.1997 10.4083 99.1498 10.4083ZM99.418 11.6044C97.1384 11.6044 95.3952 13.166 95.3952 15.8904C95.3952 18.5816 97.1384 20.2096 99.418 20.2096C101.631 20.2096 103.441 18.5483 103.441 15.8904C103.441 13.2656 101.631 11.6044 99.418 11.6044Z" fill="white"/>
<path d="M117.08 10.4083C120.063 10.4083 122.209 12.5347 122.209 15.8904C122.209 19.2461 119.996 21.4057 117.08 21.4057C114.934 21.4057 113.426 20.276 112.789 18.8806V21.2728H111.414V6.78687H112.789V12.9666C113.459 11.538 114.968 10.4083 117.08 10.4083ZM116.811 11.6044C114.632 11.6044 112.789 13.2657 112.789 15.9236C112.789 18.5816 114.599 20.2428 116.811 20.2428C119.091 20.2428 120.834 18.6148 120.834 15.9236C120.834 13.166 119.091 11.6044 116.811 11.6044Z" fill="white"/>
<path d="M128.458 21.4389C125.408 21.4389 123.162 19.3125 123.162 15.9236C123.162 12.5015 125.374 10.4083 128.458 10.4083C131.609 10.4083 133.554 12.6344 133.554 15.3588C133.554 15.7907 133.554 16.0565 133.52 16.422H124.57C124.704 18.947 126.447 20.2428 128.458 20.2428C130.302 20.2428 131.542 19.2793 131.945 17.8506H133.42C132.917 19.9105 131.174 21.4389 128.458 21.4389ZM124.57 15.3256H132.179C132.246 12.8337 130.403 11.5712 128.425 11.5712C126.447 11.6044 124.737 12.8337 124.57 15.3256Z" fill="white"/>
<path d="M135.512 11.7373H134.004V10.5745H135.512V7.8833H136.92V10.5745H139.904V11.7373H136.92V18.3823C136.92 19.7112 137.39 20.1099 138.63 20.1099H139.904V21.2728H138.429C136.552 21.2728 135.546 20.5086 135.546 18.3823V11.7373H135.512Z" fill="white"/>
<path d="M142.15 11.7373H140.641V10.5745H142.15V7.8833H143.558V10.5745H146.542V11.7373H143.558V18.3823C143.558 19.7112 144.027 20.1099 145.268 20.1099H146.542V21.2728H145.067C143.189 21.2728 142.184 20.5086 142.184 18.3823V11.7373H142.15Z" fill="white"/>
<path d="M152.489 21.4389C149.439 21.4389 147.193 19.3125 147.193 15.9236C147.193 12.5015 149.405 10.4083 152.489 10.4083C155.641 10.4083 157.585 12.6344 157.585 15.3588C157.585 15.7907 157.585 16.0565 157.551 16.422H148.601C148.735 18.947 150.478 20.2428 152.489 20.2428C154.333 20.2428 155.574 19.2793 155.976 17.8506H157.451C156.948 19.9105 155.205 21.4389 152.489 21.4389ZM148.601 15.3256H156.21C156.278 12.8337 154.434 11.5712 152.456 11.5712C150.478 11.6044 148.768 12.8337 148.601 15.3256Z" fill="white"/>
<path d="M160.516 21.2728H159.141V10.5745H160.516V12.4683C161.119 11.1393 162.359 10.3752 164.203 10.3752V11.8038H163.834C162.024 11.8038 160.516 12.6012 160.516 15.2924V21.2728Z" fill="white"/>
<path d="M185.371 15.3256C185.371 13.8969 184.533 13.0996 183.259 13.0996C181.985 13.0996 181.147 13.8969 181.147 15.3256V21.2728H177.794V15.3256C177.794 13.8969 176.956 13.0996 175.682 13.0996C174.409 13.0996 173.57 13.8969 173.57 15.3256V21.2728H170.185V10.3419H173.57V11.7041C174.207 10.8071 175.347 10.209 176.789 10.209C178.465 10.209 179.806 10.94 180.543 12.2357C181.281 11.0729 182.655 10.209 184.264 10.209C186.98 10.209 188.757 11.9367 188.757 14.8605V21.2728H185.404V15.3256H185.371Z" fill="white"/>
<path d="M195.14 21.4389C191.888 21.4389 189.441 19.2793 189.441 15.824C189.441 12.3686 191.955 10.209 195.174 10.209C198.425 10.209 200.906 12.3686 200.906 15.824C200.906 19.2793 198.392 21.4389 195.14 21.4389ZM195.14 18.5484C196.347 18.5484 197.487 17.6513 197.487 15.824C197.487 13.9634 196.381 13.0996 195.207 13.0996C193.967 13.0996 192.928 13.9634 192.928 15.824C192.894 17.6513 193.9 18.5484 195.14 18.5484Z" fill="white"/>
<path d="M209.335 15.3256C209.335 13.8305 208.497 12.9999 207.223 12.9999C205.949 12.9999 205.111 13.8305 205.111 15.3256V21.2728H201.725V10.3419H205.111V11.8038C205.781 10.8735 206.955 10.2422 208.463 10.2422C211.011 10.2422 212.721 11.9699 212.721 14.8937V21.2728H209.368V15.3256H209.335Z" fill="white"/>
<path d="M218.97 21.4389C215.718 21.4389 213.405 19.2793 213.405 15.824C213.405 12.3686 215.685 10.209 218.97 10.209C222.188 10.209 224.468 12.3354 224.468 15.6578C224.468 15.9569 224.434 16.2891 224.401 16.6546H216.758C216.892 18.0832 217.763 18.7477 218.87 18.7477C219.808 18.7477 220.345 18.2826 220.646 17.6845H224.233C223.697 19.7777 221.719 21.4389 218.97 21.4389ZM216.791 14.7608H221.015C221.015 13.5647 220.076 12.867 218.937 12.867C217.83 12.867 216.992 13.5315 216.791 14.7608Z" fill="white"/>
<path d="M232.897 10.3419H236.551L229.611 26.489H225.957L228.505 20.9073L224.013 10.3419H227.801L230.349 17.1862L232.897 10.3419Z" fill="white"/>
<path fill-rule="evenodd" clip-rule="evenodd" d="M23.7607 18.5152C24.2301 18.6481 24.6994 18.8474 25.1017 19.1132C25.3028 19.2461 25.504 19.4123 25.7051 19.6116L26.2415 20.1432L28.7222 22.6018L22.688 28.5822L20.7436 26.6552L19.6374 27.7516L22.1181 30.2102L22.6545 30.7418L23.1908 30.2102L30.3313 23.1334L30.8677 22.6018L30.3313 22.0702L27.3142 19.08L30.3313 16.0898L30.8677 15.5582L30.3313 15.0266L27.3142 12.0364L26.2079 10.94L25.7386 10.4084L20.7772 5.45795L20.2408 5.98954C20.0396 6.18889 19.9055 6.38824 19.7714 6.58758L21.6488 8.44816L19.2351 10.8403C18.7657 10.1426 18.4976 9.312 18.4976 8.44816C18.4976 8.08269 18.5311 7.71722 18.6316 7.38497C18.7657 6.91983 18.9669 6.45469 19.2351 6.05599C19.3692 5.85664 19.5368 5.6573 19.7379 5.45795L20.2743 4.92636L21.347 3.86317L22.7215 2.50096L28.7557 8.48138L26.8114 10.4084L27.9176 11.5048L30.3984 9.0462L30.9348 8.51461L22.7215 0.34137L19.1345 3.86317L15.581 0.34137L15.0446 0.872962L12.0275 3.86317L10.9213 4.95958L5.42341 10.4084L5.95979 10.94C6.16093 11.1393 6.36207 11.2722 6.56321 11.4051L8.44052 9.54457L10.8542 11.9367C10.1502 12.4019 9.31213 12.6677 8.44052 12.6677C7.56891 12.6677 6.73083 12.4019 6.02684 11.9367C5.8257 11.8038 5.62455 11.6377 5.42341 11.4384L4.88704 10.9068L2.4063 8.44816L8.44052 2.46774L10.3849 4.39476L11.4912 3.33158L9.01042 0.872962L8.47405 0.34137L7.93767 0.872962L0.797178 7.94979L0.260803 8.48138L0.797178 9.01297L3.81429 12.0032L0.260803 15.525L0.797178 16.0566L3.81429 19.0468L4.92056 20.1432L5.45694 20.6748L10.4184 25.592L10.9548 25.0604C11.1559 24.8611 11.29 24.6617 11.4241 24.4624L9.5468 22.6018L11.9605 20.2096C12.4298 20.9074 12.698 21.738 12.698 22.6018C12.698 23.4657 12.4298 24.2963 11.9605 24.994C11.8264 25.1933 11.6588 25.3927 11.4576 25.592L10.9213 26.1236L8.44052 28.5822L2.4063 22.6018L4.35066 20.6748L3.27791 19.5784L0.260803 22.5686L8.47405 30.7086L9.01042 30.177L12.0275 27.1868L15.581 30.7086L19.101 27.2532L19.1345 27.22L20.7436 25.6252L25.7386 20.6748L25.2022 20.1432C25.0011 19.9438 24.8 19.811 24.5988 19.6781L22.7215 21.5054L20.3078 19.1132C21.0118 18.6481 21.8499 18.3823 22.7215 18.3823C23.0567 18.3823 23.4255 18.4155 23.7607 18.5152ZM26.2415 18.0168C25.2358 17.2527 23.9954 16.854 22.7215 16.854C21.4476 16.854 20.2073 17.2527 19.2015 18.0168L16.6873 15.525L19.2015 13.0331C20.2073 13.7973 21.4476 14.196 22.7215 14.196C23.9954 14.196 25.2358 13.7973 26.2415 13.0331L28.7557 15.525L26.2415 18.0168ZM16.922 8.48138C16.922 9.74391 17.3242 10.9732 18.0953 11.97L15.581 14.4618L13.0668 11.97C13.8378 10.9732 14.2401 9.74391 14.2401 8.48138C14.2401 7.21885 13.8378 5.98954 13.0668 4.99281L15.581 2.50096L18.0953 4.99281C17.3242 5.98954 16.922 7.21885 16.922 8.48138ZM12.7315 8.48138C12.7315 9.34522 12.4633 10.1758 11.994 10.8735L9.58032 8.48138L11.994 6.08921C12.4633 6.78693 12.7315 7.61754 12.7315 8.48138ZM22.7215 12.7009C21.8499 12.7009 21.0118 12.4351 20.3078 11.97L22.7215 9.57779L25.1352 11.97C24.4312 12.4351 23.5931 12.7009 22.7215 12.7009ZM11.994 13.0331L14.5083 15.525L11.994 18.0168C10.9883 17.2527 9.74794 16.854 8.47405 16.854C7.20016 16.854 5.95979 17.2527 4.95409 18.0168L2.43983 15.525L4.95409 13.0331C5.95979 13.7973 7.20016 14.196 8.47405 14.196C9.74794 14.2292 10.9883 13.7973 11.994 13.0331ZM15.581 16.6214L18.0953 19.1132C17.3242 20.11 16.922 21.3393 16.922 22.6018C16.922 23.8643 17.3242 25.0937 18.0953 26.0904L15.581 28.5822L13.0668 26.0904C13.8378 25.0937 14.2401 23.8643 14.2401 22.6018C14.2401 21.3393 13.8378 20.11 13.0668 19.1132L15.581 16.6214ZM8.47405 18.3823C9.34566 18.3823 10.1837 18.6481 10.8877 19.1132L8.47405 21.5054L6.06036 19.1132C6.76435 18.6149 7.60244 18.3823 8.47405 18.3823ZM19.2015 20.1764L21.6152 22.5686L19.2015 24.9608C18.7322 24.263 18.464 23.4324 18.464 22.5686C18.464 21.7048 18.6987 20.8741 19.2015 20.1764Z" fill="white"/>
</svg>
