<svg width="44" height="44" viewBox="0 0 44 44" fill="none" xmlns="http://www.w3.org/2000/svg">
<path fill-rule="evenodd" clip-rule="evenodd" d="M33.317 26.5073C33.9824 26.6957 34.6478 26.9783 35.2182 27.3552C35.5033 27.5436 35.7885 27.7791 36.0737 28.0617L36.8341 28.8154L40.3512 32.3011L31.7961 40.7798L29.0395 38.0478L27.4711 39.6022L30.9882 43.0879L31.7486 43.8416L32.5091 43.0879L42.6325 33.0548L43.3929 32.3011L42.6325 31.5474L38.355 27.3081L42.6325 23.0687L43.3929 22.315L42.6325 21.5614L38.355 17.322L36.7866 15.7676L36.1212 15.0139L29.0871 7.99538L28.3266 8.74905C28.0414 9.03167 27.8513 9.3143 27.6612 9.59692L30.3228 12.2348L26.9008 15.6262C26.2354 14.6371 25.8552 13.4595 25.8552 12.2348C25.8552 11.7166 25.9027 11.1985 26.0453 10.7274C26.2354 10.068 26.5206 9.4085 26.9008 8.84326C27.0909 8.56063 27.3285 8.27801 27.6137 7.99538L28.3741 7.24172L29.895 5.73438L31.8437 3.80312L40.3987 12.2819L37.6421 15.0139L39.2105 16.5683L42.7276 13.0826L43.488 12.329L31.8437 0.741348L26.7582 5.73438L21.7202 0.741348L20.9598 1.49501L16.6823 5.73438L15.1139 7.28882L7.31929 15.0139L8.07974 15.7676C8.36491 16.0502 8.65007 16.2386 8.93524 16.427L11.5968 13.7892L15.0188 17.1807C14.0207 17.8401 12.8325 18.217 11.5968 18.217C10.3611 18.217 9.17288 17.8401 8.17479 17.1807C7.88963 16.9923 7.60446 16.7567 7.31929 16.4741L6.55885 15.7205L3.04178 12.2348L11.5968 3.75601L14.3534 6.48805L15.9218 4.98072L12.4048 1.49501L11.6443 0.741348L10.8839 1.49501L0.760446 11.5282L0 12.2819L0.760446 13.0355L5.03795 17.2749L0 22.2679L0.760446 23.0216L5.03795 27.261L6.60637 28.8154L7.36682 29.5691L14.4009 36.5405L15.1614 35.7868C15.4466 35.5042 15.6367 35.2216 15.8268 34.9389L13.1652 32.3011L16.5872 28.9096C17.2526 29.8988 17.6328 31.0764 17.6328 32.3011C17.6328 33.5258 17.2526 34.7034 16.5872 35.6926C16.3971 35.9752 16.1595 36.2578 15.8743 36.5405L15.1139 37.2941L11.5968 40.7798L3.04178 32.3011L5.7984 29.5691L4.27751 28.0146L0 32.254L11.6443 43.7945L12.4048 43.0408L16.6823 38.8015L21.7202 43.7945L26.7107 38.8957L26.7582 38.8486L29.0395 36.5876L36.1212 29.5691L35.3607 28.8154C35.0756 28.5328 34.7904 28.3444 34.5052 28.1559L31.8437 30.7467L28.4217 27.3552C29.4198 26.6957 30.6079 26.3189 31.8437 26.3189C32.319 26.3189 32.8418 26.366 33.317 26.5073ZM36.8341 25.8007C35.4083 24.7173 33.6497 24.1521 31.8437 24.1521C30.0376 24.1521 28.2791 24.7173 26.8532 25.8007L23.2887 22.2679L26.8532 18.7351C28.2791 19.8185 30.0376 20.3838 31.8437 20.3838C33.6497 20.3838 35.4083 19.8185 36.8341 18.7351L40.3987 22.2679L36.8341 25.8007ZM23.6214 12.2819C23.6214 14.0718 24.1917 15.8147 25.2848 17.2278L21.7202 20.7606L18.1556 17.2278C19.2488 15.8147 19.8191 14.0718 19.8191 12.2819C19.8191 10.4919 19.2488 8.74905 18.1556 7.33592L21.7202 3.80312L25.2848 7.33592C24.1917 8.74905 23.6214 10.4919 23.6214 12.2819ZM17.6804 12.2819C17.6804 13.5066 17.3001 14.6842 16.6348 15.6734L13.2127 12.2819L16.6348 8.89036C17.3001 9.87955 17.6804 11.0571 17.6804 12.2819ZM31.8437 18.2641C30.6079 18.2641 29.4198 17.8872 28.4217 17.2278L31.8437 13.8363L35.2657 17.2278C34.2676 17.8872 33.0794 18.2641 31.8437 18.2641ZM16.6348 18.7351L20.1993 22.2679L16.6348 25.8007C15.2089 24.7173 13.4504 24.1521 11.6443 24.1521C9.83827 24.1521 8.07974 24.7173 6.6539 25.8007L3.08931 22.2679L6.6539 18.7351C8.07974 19.8185 9.83827 20.3838 11.6443 20.3838C13.4504 20.4309 15.2089 19.8185 16.6348 18.7351ZM21.7202 23.8224L25.2848 27.3552C24.1917 28.7683 23.6214 30.5111 23.6214 32.3011C23.6214 34.0911 24.1917 35.8339 25.2848 37.247L21.7202 40.7798L18.1556 37.247C19.2488 35.8339 19.8191 34.0911 19.8191 32.3011C19.8191 30.5111 19.2488 28.7683 18.1556 27.3552L21.7202 23.8224ZM11.6443 26.3189C12.8801 26.3189 14.0682 26.6957 15.0663 27.3552L11.6443 30.7467L8.22232 27.3552C9.22041 26.6486 10.4086 26.3189 11.6443 26.3189ZM26.8532 28.8625L30.2753 32.254L26.8532 35.6455C26.1879 34.6563 25.8076 33.4787 25.8076 32.254C25.8076 31.0293 26.1403 29.8517 26.8532 28.8625Z" fill="#196B93"/>
</svg>
